<?xml version="1.0" encoding="utf-8"?><svg style="display:none;" xmlns="http://www.w3.org/2000/svg" xmlns:xlink="http://www.w3.org/1999/xlink"><symbol id="anim1__arrow" viewBox="0 0 18 27"><style>.aast0{fill-rule:evenodd;clip-rule:evenodd;fill:#b6bbbc}</style><path class="aast0" d="M16.4 16L10 22.7V0H8v22.7L1.6 16 0 17.6 9 27l9-9.4"/></symbol><symbol id="anim1__base" viewBox="0 0 340 146.4"><style>.abst0{fill-rule:evenodd;clip-rule:evenodd;fill:#e0e3e3}</style><path class="abst0" d="M6.2 66.8L155.1 2.7c8.3-3.6 21.6-3.6 29.9 0l148.9 64.1c8.3 3.6 8.3 9.3 0 12.9l-148.9 64c-8.3 3.6-21.6 3.6-29.9 0L6.2 79.6c-8.3-3.5-8.3-9.3 0-12.8z"/></symbol><symbol id="anim1__c5" viewBox="0 0 340 146.4"><style>.acst0{fill:#f6f7f8}.acst1{fill:#FFF}.acst2{fill:#b6bbbc}.acst3{fill:#cfd4d5}</style><path class="acst0" d="M170 10c-4.2 0-8.3.7-11 1.9L16.5 73.2 159 134.5c2.7 1.2 6.8 1.9 11 1.9s8.3-.7 11-1.9l142.5-61.3L181 11.9c-2.7-1.2-6.8-1.9-11-1.9z"/><path class="acst1" d="M333 68.6L184.2 4.5C180.4 2.9 175.4 2 170 2s-10.4.9-14.2 2.5L7 68.6c-3.1 1.3-5 3.1-5 4.6s1.9 3.3 5 4.6l148.9 64.1c3.7 1.6 8.8 2.5 14.2 2.5s10.4-.9 14.2-2.5L333 77.8c3.1-1.3 5-3.1 5-4.6s-1.9-3.3-5-4.6zm-152 65.9c-2.7 1.2-6.8 1.9-11 1.9s-8.3-.7-11-1.9L16.5 73.2 159 11.9c2.7-1.2 6.8-1.9 11-1.9s8.3.7 11 1.9l142.5 61.3L181 134.5z"/><path class="acst2" d="M339.9 72.3c-.2-.9-.7-1.7-1.5-2.6-1-1.1-2.6-2.1-4.6-3L185 2.7c-2.1-.9-4.4-1.6-7-2-1.2-.2-2.4-.4-3.7-.5h-.3c-1.4-.1-2.7-.2-4-.2-1.4 0-2.7.1-4 .2-1.2.1-2.5.3-3.7.5-1.4.2-2.7.5-3.9.9-.6.2-1.2.3-1.7.5-.6.2-1.1.4-1.6.6L6.2 66.8c-1 .4-1.9.9-2.7 1.4C2 69.2.9 70.3.4 71.5s-.5 2.3 0 3.5c.5 1.1 1.5 2.3 3.1 3.3.8.5 1.7 1 2.7 1.4l148.9 64.1c.5.2 1.1.4 1.6.6.6.2 1.1.4 1.7.5 1.8.5 3.7.9 5.6 1.1 2 .2 4 .4 6 .4h2c2-.1 4-.3 5.9-.6 2.5-.4 4.9-1.1 7-2l148.9-64.1c2.1-.9 3.6-1.9 4.6-3 .8-.8 1.3-1.7 1.5-2.6.1-.6.1-1.2 0-1.8zm-6.9 5.5l-148.9 64.1c-3.7 1.6-8.8 2.5-14.2 2.5s-10.4-.9-14.2-2.5L7 77.8c-3.1-1.3-5-3.1-5-4.6s1.9-3.3 5-4.6L155.9 4.5C159.6 2.9 164.6 2 170 2s10.4.9 14.2 2.5L333 68.6c3.1 1.3 5 3.1 5 4.6s-1.9 3.2-5 4.6z"/><path class="acst3" d="M159.9 34L81.2 68.2c-8 3.5-8 9.1 0 12.6l78.7 34.2c8 3.5 20.9 3.5 28.9 0l78.7-34.2c8-3.5 8-9.1 0-12.6L188.7 34c-7.9-3.5-20.9-3.5-28.8 0zm5.8 23.7c-1.9-1.2-5.5-3.2-4-4.7 3.1-3.1 9.3-.3 11.6 1.2 2.3 1.5 21.1 13 13.8 14.3-5.4 1.1-19.1-9.3-21.4-10.8zm-27.3-2.2c4.4-1.3 10.9 2.5 13.7 3.7 3 1.3 25.8 10.9 20.4 12.7-5.6 1.8-26.7-8.3-30.5-9.8-3.4-1.7-9.6-4.8-3.6-6.6zM122.8 68c.7-3.4 9-1.6 12.5-.5s31.7 8.7 25.5 11c-4.8 1.8-27-5.3-30.4-6.5-2.8-.9-7.9-2.3-7.6-4zm.3 10.6c3.2-1 8.2.2 11.4 1.3 2.7.8 25.4 5.6 21.7 6.7-3.4 1-26.2-2.5-30.2-3.6-3.8-1.3-6.6-3.2-2.9-4.4zm99.2 6.7c-1.4 2-4.3 4.1-6.4 5.2-8.3 4.2-19.6 7.2-31.9 7.2-12.5-.1-22.4-3.3-23.9-8.8-1.4-5.1 4.1-10 12.5-13.9 4.6-2.2 22.8-8.5 25.9-2.9 2.6 4.5-14.5 6.3-18.6 9.9-4.6 4 2.6 8.8 12.9 7.6 7.5-.9 14.1-3.9 15.6-7.1 2.2-4.6-5.4-18.4 11.7-17.7 3.5.1 4.9 16.5 2.2 20.5z"/></symbol><symbol id="anim1__craft" viewBox="0 0 340 146.4"><style>.adst0{fill:#f6f7f8}.adst1{fill:#FFF}.adst2{fill:#b6bbbc}.adst3{fill:#cfd4d5}</style><path class="adst0" d="M170 10c-4.2 0-8.3.7-11 1.9L16.5 73.2 159 134.5c2.7 1.2 6.8 1.9 11 1.9s8.3-.7 11-1.9l142.5-61.3L181 11.9c-2.7-1.2-6.8-1.9-11-1.9z"/><path class="adst1" d="M333 68.6L184.2 4.5C180.4 2.9 175.4 2 170 2s-10.4.9-14.2 2.5L7 68.6c-3.1 1.3-5 3.1-5 4.6s1.9 3.3 5 4.6l148.9 64.1c3.7 1.6 8.8 2.5 14.2 2.5s10.4-.9 14.2-2.5L333 77.8c3.1-1.3 5-3.1 5-4.6s-1.9-3.3-5-4.6zm-152 65.9c-2.7 1.2-6.8 1.9-11 1.9s-8.3-.7-11-1.9L16.5 73.2 159 11.9c2.7-1.2 6.8-1.9 11-1.9s8.3.7 11 1.9l142.5 61.3L181 134.5z"/><path class="adst2" d="M339.9 72.3c-.2-.9-.7-1.7-1.5-2.6-1-1.1-2.6-2.1-4.6-3L185 2.7c-2.1-.9-4.4-1.6-7-2-1.2-.2-2.4-.4-3.7-.5h-.3c-1.4-.1-2.7-.2-4-.2-1.4 0-2.7.1-4 .2-1.2.1-2.5.3-3.7.5-1.4.2-2.7.5-3.9.9-.6.2-1.2.3-1.7.5-.6.2-1.1.4-1.6.6L6.2 66.8c-1 .4-1.9.9-2.7 1.4C2 69.2.9 70.3.4 71.5s-.5 2.3 0 3.5c.5 1.1 1.5 2.3 3.1 3.3.8.5 1.7 1 2.7 1.4l148.9 64.1c.5.2 1.1.4 1.6.6.6.2 1.1.4 1.7.5 1.8.5 3.7.9 5.6 1.1 2 .2 4 .4 6 .4h2c2-.1 4-.3 5.9-.6 2.5-.4 4.9-1.1 7-2l148.9-64.1c2.1-.9 3.6-1.9 4.6-3 .8-.8 1.3-1.7 1.5-2.6.1-.6.1-1.2 0-1.8zm-6.9 5.5l-148.9 64.1c-3.7 1.6-8.8 2.5-14.2 2.5s-10.4-.9-14.2-2.5L7 77.8c-3.1-1.3-5-3.1-5-4.6s1.9-3.3 5-4.6L155.9 4.5C159.6 2.9 164.6 2 170 2s10.4.9 14.2 2.5L333 68.6c3.1 1.3 5 3.1 5 4.6s-1.9 3.2-5 4.6z"/><path class="adst3" d="M203.2 54c2.2-1 4.4-1.9 6.4-2.9.3-.1.7-.4 0-.8-1.4-.7-1.5-1.6-1.2-2.5.4-1.2.7-2 1-3.3.1-.2.2-.9.4-1.4 2.5 1.6 4.7 3 7 4.6 3.2-1.4 6.3-2.8 9.5-4.3 1.6 1.1 3.1 2 4.5 3 .2.1-.2.5-.6.6-2.5 1.1-4.9 2.3-7.5 3.4-.9.4-.9.6-.2 1.1 3.4 2.2 6.6 4.4 9.9 6.5 2.6 1.8 6.1 1.7 9.1-.2.5-.3 1-.6 1.7-1 1.5 1 3 1.9 4.3 2.9.2.1 0 .4-.3.6-2.2 1-4.1 2.1-6.6 2.9-4.8 1.5-10.1.8-13.6-1.5-3.6-2.4-7.2-4.7-10.8-7.1-.3-.2-.7-.4-1.2-.7-2.2 1-4.4 1.9-6.5 2.9-.3.1-.2.5.1.7 4.9 3.3 9.8 6.5 14.8 9.7 4.5 3 9 5.9 13.5 8.9.3.2.4.6.2.7-1.8.9-3.8 1.7-5.9 2.7-10-6.6-19.8-13.1-29.8-19.6-2.1.9-4.1 1.8-6 2.7-.1 0-.3-.1-.4-.1.1-.5.2-1 .3-1.6.3-1.1.5-2.3 1-3.4.2-.6 0-1.1-.8-1.7-2.6-1.7-5.1-3.4-7.7-5-3.9-2.5-4.2-6.2-.7-8.5 1.6-1.1 4-1.9 6.7-2.4.4-.1.9-.1 1.4.2 1.3.8 1.8 1.1 3.4 2.2.5.3 0 .7-.3.9-1.5.7-3.2 1.4-4.5 2.2-1.1.6-1 1.4 0 2.1 2.9 1.9 5.9 3.9 8.8 5.8-.1.3.2.5.6.7zm-37.5 38c-.6 2.5-2.3 4.7-4.9 6.8-6.5 5.1-18.3 7.9-30.6 7.1-9.2-.6-16.4-2.7-21.8-6-8.9-5.4-10.9-11.4-5.9-17.7 3.9-4.9 11.4-8.3 23-9.6 2.1-.2 4.3-.3 6.8-.4-.4 1.4-.7 2.5-1.1 3.7 0 .1-.6.3-1 .3-13.2.6-21.3 6.1-21.8 11.6-.4 4 2.3 7.6 8.5 10.5 8.3 3.9 20.5 4.9 30.7 1.5 5-1.6 8.1-3.9 9.6-6.6.3-.5.9-.8 2.1-.8 2.1-.2 4.1-.3 6.4-.4zm40.7-13.4c-.7-.4-1.2-.7-1.9-1.1-.1.4-.2.6-.3.9-1.3 3.8-11.3 6.9-20.5 4.2-4.7-1.4-6.6-4.6-4.2-7.3 2.1-2.3 6.2-3.7 11-4.8.8-.2 1.2-.2 2.1-.3-1.3-1-2.3-1.9-4-2.4-3.1-1.1-7.1-.5-9.7 1.2-.8.6-1.6 1.1-2.3 1.7-.7.6-1.3 1.2-2.1 2-1-.6-1.9-1.1-2.7-1.7-2.7-1.8-2.7-1.8 0-3.6 2.5-1.6 5.4-3 9.3-3.9 4.8-1.1 10-.9 13.6.9 2.9 1.4 5.3 3 7.7 4.6 3.1 2 6 4.1 9 6.2.7.5.8.8-.2 1.2-1.5.7-3.1 1.4-4.8 2.2zm-10.1.5c2.6-1.1 3.2-2.5 3.4-4 .2-1.6-2-2.4-5.3-1.7-.7.1-1.5.3-2.2.5-2.6.7-4.7 1.6-5.4 3-.5 1-.3 2.1 1.8 2.7 2.1.7 4.4.5 6.5-.1.5-.1 1-.3 1.2-.4zm-23 14.4c-1.9-1.2-3.6-2.3-5.3-3.4-5.7-3.7-11.4-7.4-17.2-11.1-1-.7-1.1-1.1.3-1.6 1.1-.5 2-.9 3.1-1.4.9-.5 1.4-.5 2.4.1.1.1.6.3 1 .6 1.5-1.9 3.2-3.6 6.6-5.1 1.9 1.2 3.6 2.2 5.2 3.3-1.5.8-3.1 1.4-4.2 2.2-2.1 1.4-2.3 2.9.1 4.4 4.5 2.9 8.9 5.8 13.3 8.8.7.5.8.7-.2 1.1-1.7.5-3.3 1.3-5.1 2.1z"/></symbol><symbol id="anim1__snip" viewBox="0 0 340 146.4"><style>.aest0{fill:#FFF}.aest1{fill:#b6bbbc}.aest2{fill:#f1e771}</style><path class="aest0" d="M333 68.6L184.2 4.5C180.4 2.9 175.4 2 170 2s-10.4.9-14.2 2.5L7 68.6c-3.1 1.3-5 3.1-5 4.6s1.9 3.3 5 4.6l148.9 64.1c3.7 1.6 8.8 2.5 14.2 2.5s10.4-.9 14.2-2.5L333 77.8c3.1-1.3 5-3.1 5-4.6s-1.9-3.3-5-4.6z"/><path class="aest1" d="M339.6 71.4c-.4-.9-1.1-1.7-2-2.5-1-.8-2.2-1.5-3.8-2.2L185 2.7c-2.1-.9-4.4-1.6-7-2-1.2-.2-2.4-.4-3.7-.5h-.3c-1.4-.1-2.7-.2-4-.2-2.7 0-5.4.2-8 .7-.6.1-1.3.2-1.9.4-1.2.3-2.4.6-3.5 1-.6.2-1.1.4-1.6.6L6.2 66.8c-1.5.7-2.8 1.4-3.8 2.2-1 .8-1.6 1.6-2 2.5-.3.5-.4 1.1-.4 1.7 0 .3 0 .6.1.9.1.6.4 1.2.8 1.7 1 1.4 2.7 2.7 5.3 3.8l148.9 64.1c.5.2 1.1.4 1.6.6 1.1.4 2.3.7 3.5 1 .6.1 1.2.3 1.9.4 3.8.7 7.9.8 11.9.5h.3c1.3-.1 2.5-.3 3.7-.5 2.5-.4 4.9-1.1 7-2l148.9-64.1c2.6-1.1 4.4-2.4 5.3-3.8.4-.6.6-1.1.8-1.7.1-.3.1-.6.1-.9-.1-.6-.2-1.2-.5-1.8zm-6.6 6.4l-148.9 64.1c-3.7 1.6-8.8 2.5-14.2 2.5s-10.4-.9-14.2-2.5L7 77.8c-3.1-1.3-5-3.1-5-4.6s1.9-3.3 5-4.6L155.9 4.5C159.6 2.9 164.6 2 170 2s10.4.9 14.2 2.5L333 68.6c3.1 1.3 5 3.1 5 4.6s-1.9 3.2-5 4.6z"/><path class="aest2" d="M181.7 37.4l-61.6 7.4c-5.4.6-10.9 3.2-12.4 5.6L91.4 78.5c-1.4 2.5.7 5.9 4.6 7.7l45.3 20.6c4 1.8 11.6 2.7 17 2.1l61.6-7.4c5.4-.6 10.9-3.2 12.4-5.6l16.3-28c1.4-2.5-.7-5.9-4.6-7.7l-45.3-20.6c-4-1.9-11.6-2.8-17-2.2zm13.9 15.9l-4 1.8-6.9-3.1c-5.3-2.4-10.9-1.3-18.7 2.2l-.4.2c-18.7 8.5-24.1 4.6-27.2 3.6l-.3.1c2 1.4 10.9 3.8-7.8 12.3l-.5.2c-7.8 3.6-10.2 6.1-4.9 8.5l5.3 2.4 82.4-20.6 1 .5 6.6 3c7.6 3.5 8.2 7-4.1 12.6l-.6.3c-9.5 4.3-13.4 8-5.8 11.4l-4 1.8c-7.6-3.5-15.5-1.7-25 2.6l-.6.3c-12.2 5.6-20.1 5.3-27.7 1.9l-6.6-3 4-1.8 6.9 3.1c5.3 2.4 11 1.3 18.8-2.2l.4-.2c18.7-8.5 24.1-4.6 27.2-3.6l.3-.1c-2-1.4-10.9-3.8 7.8-12.3l.5-.2c7.8-3.6 10.2-6.1 4.9-8.5l-4-1.8-82.4 20.6-2.4-1.1-6.6-3c-7.6-3.5-8.2-7 4.1-12.6l.6-.3c9.6-4.4 13.4-8 5.8-11.4l4-1.8c7.6 3.5 15.5 1.7 25-2.6l.6-.3c12.2-5.6 20.1-5.3 27.7-1.9l6.6 3z"/></symbol><symbol id="anim1__wp" viewBox="0 0 340 146.4"><style>.afst0{fill:#f6f7f8}.afst1{fill:#FFF}.afst2{fill:#b6bbbc}.afst3{fill:#cfd4d5}</style><path class="afst0" d="M170 10c-4.2 0-8.3.7-11 1.9L16.5 73.2 159 134.5c2.7 1.2 6.8 1.9 11 1.9s8.3-.7 11-1.9l142.5-61.3L181 11.9c-2.7-1.2-6.8-1.9-11-1.9z"/><path class="afst1" d="M333 68.6L184.2 4.5C180.4 2.9 175.4 2 170 2s-10.4.9-14.2 2.5L7 68.6c-3.1 1.3-5 3.1-5 4.6s1.9 3.3 5 4.6l148.9 64.1c3.7 1.6 8.8 2.5 14.2 2.5s10.4-.9 14.2-2.5L333 77.8c3.1-1.3 5-3.1 5-4.6s-1.9-3.3-5-4.6zm-152 65.9c-2.7 1.2-6.8 1.9-11 1.9s-8.3-.7-11-1.9L16.5 73.2 159 11.9c2.7-1.2 6.8-1.9 11-1.9s8.3.7 11 1.9l142.5 61.3L181 134.5z"/><path class="afst2" d="M339.9 72.3c-.2-.9-.7-1.7-1.5-2.6-1-1.1-2.6-2.1-4.6-3L185 2.7c-2.1-.9-4.4-1.6-7-2-1.2-.2-2.4-.4-3.7-.5h-.3c-1.4-.1-2.7-.2-4-.2-1.4 0-2.7.1-4 .2-1.2.1-2.5.3-3.7.5-1.4.2-2.7.5-3.9.9-.6.2-1.2.3-1.7.5-.6.2-1.1.4-1.6.6L6.2 66.8c-1 .4-1.9.9-2.7 1.4C2 69.2.9 70.3.4 71.5s-.5 2.3 0 3.5c.5 1.1 1.5 2.3 3.1 3.3.8.5 1.7 1 2.7 1.4l148.9 64.1c.5.2 1.1.4 1.6.6.6.2 1.1.4 1.7.5 1.8.5 3.7.9 5.6 1.1 2 .2 4 .4 6 .4h2c2-.1 4-.3 5.9-.6 2.5-.4 4.9-1.1 7-2l148.9-64.1c2.1-.9 3.6-1.9 4.6-3 .8-.8 1.3-1.7 1.5-2.6.1-.6.1-1.2 0-1.8zm-6.9 5.5l-148.9 64.1c-3.7 1.6-8.8 2.5-14.2 2.5s-10.4-.9-14.2-2.5L7 77.8c-3.1-1.3-5-3.1-5-4.6s1.9-3.3 5-4.6L155.9 4.5C159.6 2.9 164.6 2 170 2s10.4.9 14.2 2.5L333 68.6c3.1 1.3 5 3.1 5 4.6s-1.9 3.2-5 4.6z"/><path class="afst3" d="M174.5 74.5l24.7 22.2c5-1.2 9.7-2.7 14-4.6 5-2.2 9-4.7 11.9-7.4-.3 0-.6-.1-.9-.1l-49.7-10.1zm-47.7 17.6c17.1 7.5 41.8 9.6 63.2 6.4l-77-15.7c3 3.4 7.6 6.6 13.8 9.3zm-2.8-20c2.2-1.1 5.9.3 3.8 1.4 0 0-2.1 1.1-4.5 2.3l62.5 13.6L166.9 73l-25.2-5.1c-2.5 1-4.9 1.8-4.9 1.8-2.5 1-5.7-.7-3.3-1.7 0 0 7.7-2.9 11.9-4.8 4.5-2 11-5.3 11-5.3 2.2-1.1 5.9.3 3.8 1.4 0 0-2.1 1.1-4.5 2.3l62 13.5-10-8.1c-4.1-3.4-7-5.9-10.7-7.6-5.3-2.3-10.9-3.1-15.5-3.7-5.7-.6-10.8-1-14.4-2.6-4-1.7-4.7-4.7-.4-6.5.2-.1.4-.2.6-.2-14.7.3-29.3 2.9-40.5 7.8-15.1 6.6-20.6 15.8-16.6 24.4 1-.4 2-.8 2.8-1.2 4.6-2 11-5.3 11-5.3zm89.2-17.9c-7.5-3.3-16.5-5.6-26-6.8 1.6.5 3.1 1.1 4.7 1.8 4.4 1.9 8.5 4.4 12.2 8.2L229 80c5.4-8.9.1-18.8-15.8-25.8zm11.6-5.1c-30.3-13.3-79.3-13.3-109.6 0C85 62.4 85 84 115.2 97.2c30.3 13.3 79.3 13.3 109.6 0 30.3-13.2 30.3-34.8 0-48.1zM218 94.3c-26.5 11.6-69.6 11.6-96.1 0s-26.5-30.5 0-42.2c26.5-11.6 69.6-11.6 96.1 0s26.5 30.5 0 42.2z"/></symbol><symbol id="anim2__arrow" viewBox="0 0 79.5 17.4"><style>.agst0{fill-rule:evenodd;clip-rule:evenodd;fill:#b6bbbc}</style><path class="agst0" d="M40.7 2C27.8 2 15.4 4.5 3.9 9l4.8-7.9-2-1.1L0 11.1l11.4 6.3 1.2-2-8.1-4.5C15.7 6.5 27.9 4 40.7 4c13.6 0 26.6 2.8 38.4 7.8.1-.7.2-1.3.3-2-11.9-5-25-7.8-38.7-7.8z"/></symbol><symbol id="anim2__cash" viewBox="0 0 45 78.5"><style>.ahst0{fill:#b6bbbc}</style><path class="ahst0" d="M43.6 46.2c-.9-1.8-2.3-3.4-4.1-4.8-1.8-1.3-4-2.5-6.6-3.4-2.4-.9-5.2-1.7-8.3-2.4V8.5c3.2.2 6 .9 8.4 2 2.6 1.2 5.1 2.9 7.5 4.9l.6.5 2.2-2.6-.6-.5c-2.6-2.3-5.4-4.1-8.4-5.3-2.8-1.2-6.1-1.9-9.7-2.2V0h-3.2v5.3c-2.7.1-5.1.5-7.3 1.2-2.3.9-4.4 2.1-6.1 3.5-1.7 1.5-3.1 3.2-4 5.2-.9 2-1.4 4.1-1.4 6.4v.2c0 2.3.4 4.4 1.3 6.1.9 1.7 2.1 3.3 3.8 4.6 1.6 1.3 3.7 2.4 6.1 3.3 2.2.9 4.8 1.6 7.7 2.3v28.3c-3.4-.4-6.6-1.3-9.6-2.7C8.6 62.1 5.6 60 3 57.4l-.5-.5L0 59.3l.6.5c2.9 2.7 6.2 5 9.9 6.8 3.5 1.6 7.2 2.7 11 3v9h3.2v-8.8h.1c3.1 0 5.9-.4 8.3-1.3 2.5-.9 4.6-2.1 6.4-3.6 1.8-1.5 3.2-3.3 4.1-5.4.9-2.1 1.4-4.4 1.4-6.8v-.2c0-2.4-.5-4.5-1.4-6.3zM21.5 8.4v26.3c-5.2-1.3-9.1-2.9-11.6-4.7-2.5-1.9-3.8-4.6-3.8-8.3v-.2c0-1.7.4-3.4 1.1-5 .7-1.6 1.8-3 3.2-4.2 1.4-1.2 3.1-2.2 5.1-2.9 1.8-.5 3.8-.9 6-1zM24.7 39c2.6.6 5 1.4 7 2.1 2.2.8 4.1 1.8 5.5 2.8 1.4 1 2.5 2.3 3.2 3.7.7 1.4 1.1 3.1 1.1 5.1v.2c0 1.9-.4 3.7-1.1 5.4-.8 1.7-1.9 3.1-3.3 4.4-1.4 1.3-3.2 2.2-5.3 3-2.1.7-4.4 1.1-7 1.1h-.1V39z"/></symbol><symbol id="anim2__clock" viewBox="0 0 72 80"><style>.aist0{fill:#b6bbbc}</style><path class="aist0" d="M67.6 26.6c-1.5-2.7-3.2-5.2-5.3-7.4l3.8-4.7c.6-.7.5-1.7-.2-2.3-.7-.6-1.7-.5-2.3.2L60 17c-4.5-4-10-6.9-15.9-8.3V1.6c0-.9-.7-1.6-1.6-1.6H30.3c-.9 0-1.6.7-1.6 1.6v6.9c-3.4.7-6.7 1.9-9.8 3.6-2.5 1.4-4.8 3-6.8 4.8l-3.6-4.5c-.6-.7-1.6-.8-2.3-.2-.7.6-.8 1.6-.2 2.3l3.8 4.7c-3.8 4-6.6 8.9-8.2 14.4-2.7 9.2-1.7 19 2.9 27.5C10.7 72.8 22.8 80 36 80c6 0 11.9-1.5 17.2-4.4 5.7-3.1 10.4-7.6 13.7-13.1 3.2-5.3 5-11.5 5.1-17.7.2-6.3-1.4-12.6-4.4-18.2zM31.9 3.3h9v4.8c-1.6-.2-3.2-.3-4.9-.3-1.4 0-2.7.1-4.1.2V3.3zm19.7 69.4c-4.8 2.6-10.2 4-15.6 4-12 0-23.1-6.6-28.8-17.2C-1.4 43.7 4.5 23.7 20.4 15c4.8-2.6 10.2-4 15.6-4 12 0 23.1 6.6 28.8 17.2 2.7 5.1 4.1 10.8 4 16.5-.4 11.7-6.9 22.4-17.2 28zM36.8 19c.9 0 1.7-.7 1.7-1.6v-.9c0-.9-.7-1.7-1.6-1.7-.9 0-1.7.7-1.7 1.6v.9c0 .9.7 1.7 1.6 1.7zm-14.7 2.3c.3.5.9.9 1.4.9.3 0 .5-.1.8-.2.8-.4 1.1-1.4.7-2.2l-.4-.8c-.4-.8-1.4-1.1-2.2-.7-.8.4-1.1 1.4-.7 2.2l.4.8zm-7.7 7.2l-.8-.5c-.8-.5-1.8-.2-2.2.5-.5.8-.2 1.8.5 2.2l.8.5c.3.2.6.2.9.2.5 0 1.1-.3 1.4-.8.4-.6.2-1.6-.6-2.1zm-3.2 14.6c0-.9-.7-1.7-1.6-1.7h-.9c-.9 0-1.6.7-1.7 1.6 0 .9.7 1.7 1.6 1.7h1c.9 0 1.6-.7 1.6-1.6zm.7 11.9l-.8.4c-.8.4-1.1 1.4-.7 2.2.3.5.9.9 1.4.9.3 0 .5-.1.8-.2l.8-.4c.8-.4 1.1-1.4.7-2.2-.4-.9-1.4-1.2-2.2-.7zm11 10c-.8-.5-1.8-.2-2.2.5l-.5.8c-.5.8-.2 1.8.5 2.2.3.2.6.2.9.2.5 0 1.1-.3 1.4-.8l.5-.8c.4-.6.2-1.6-.6-2.1zm12.3 3.7c-.9 0-1.6.7-1.7 1.6v.9c0 .9.7 1.7 1.6 1.7h.1c.9 0 1.6-.7 1.6-1.6v-.9c0-.9-.7-1.6-1.6-1.7zm14.7-2.2c-.4-.8-1.4-1.1-2.2-.7-.8.4-1.1 1.4-.7 2.2l.4.8c.3.5.9.9 1.4.9.3 0 .5-.1.8-.2.8-.4 1.1-1.4.7-2.2l-.4-.8zm10.2-9.6l-.8-.5c-.8-.5-1.8-.2-2.2.5-.5.8-.2 1.8.5 2.2l.8.5c.3.2.6.2.9.2.5 0 1.1-.3 1.4-.8.4-.6.1-1.6-.6-2.1zm3.3-13.8h-.9c-.9 0-1.6.7-1.7 1.6 0 .9.7 1.7 1.6 1.7h1c.9 0 1.6-.7 1.6-1.6 0-.9-.8-1.6-1.6-1.7zM59.3 33c.3 0 .5-.1.8-.2l.8-.4c.8-.4 1.1-1.4.7-2.2-.4-.8-1.4-1.1-2.2-.7l-.8.4c-.8.4-1.1 1.4-.7 2.2.3.6.8.9 1.4.9zm-8-13.8c-.8-.5-1.8-.2-2.2.5l-.5.8c-.5.8-.2 1.8.5 2.2.3.2.6.2.9.2.5 0 1.1-.3 1.4-.8l.5-.8c.4-.6.1-1.6-.6-2.1zM38.6 39.6c-.8-.5-1.7-.7-2.7-.7-1.2 0-2.4.5-3.3 1.2l-12.5-8c-.8-.5-1.8-.3-2.2.5-.5.8-.3 1.8.5 2.3l12.6 8c-.2.8-.2 1.6 0 2.4.3 1.3 1.2 2.5 2.4 3.2.8.5 1.7.7 2.7.7 1.8 0 3.5-1 4.4-2.5 1.3-2.4.5-5.6-1.9-7.1zm-1 5.4c-.4.6-1 .9-1.6.9-.3 0-.7-.1-1-.3-.4-.3-.7-.7-.9-1.2-.1-.5 0-1 .2-1.5.4-.6 1-.9 1.6-.9.3 0 .7.1 1 .3.9.6 1.2 1.8.7 2.7z"/></symbol><symbol id="anim2__ring--empty" viewBox="0 0 250 250"><style>.ajst0{fill:none;stroke:#e0e4e4;stroke-width:15;}</style><path class="ajst0" d="m10 125c0-63.5127 51.4873-115 115-115 63.513 0 115 51.4873 115 115 0 63.513-51.487 115-115 115-63.5128 0-115-51.487-115-115"/></symbol><symbol id="anim2__ring--border" viewBox="0 0 266.8 267.5"><style>.akst0{fill:#b6bbbc}</style><path class="akst0" d="M133.4 267.5C59.8 267.5 0 207.5 0 133.8S59.8 0 133.4 0s133.4 60 133.4 133.8S207 267.5 133.4 267.5zm0-265.5C61 2 2 61.1 2 133.8s59 131.8 131.4 131.8c72.5 0 131.4-59.1 131.4-131.8S205.9 2 133.4 2zm.6 233.7c-55.8 0-101.1-45.5-101.1-101.4S78.2 32.9 134 32.9s101.1 45.5 101.1 101.4S189.8 235.7 134 235.7zm0-200.8c-54.7 0-99.1 44.6-99.1 99.4 0 54.8 44.5 99.4 99.1 99.4s99.1-44.6 99.1-99.4c0-54.8-44.4-99.4-99.1-99.4z"/></symbol><symbol id="anim2__ring--full" viewBox="0 0 250 250"><style>.alst0{fill:none;stroke-width:20;stroke:#f1e771;}</style><path class="alst0 anim2__ringPath" d="m10 125c0-63.5127 51.4873-115 115-115 63.513 0 115 51.4873 115 115 0 63.513-51.487 115-115 115-63.5128 0-115-51.487-115-115"/></symbol><symbol id="anim2__ring--fullWhite" viewBox="0 0 250 250"><style>.azst0{fill:none;stroke-width:20;stroke:#fff;}</style><path class="azst0 anim2__ringPathWhite" d="m10 125c0-63.5127 51.4873-115 115-115 63.513 0 115 51.4873 115 115 0 63.513-51.487 115-115 115-63.5128 0-115-51.487-115-115"/></symbol><symbol id="anim3__arrow" viewBox="0 0 43 18"><style>.amst0{fill-rule:evenodd;clip-rule:evenodd;fill:#b6bbbc}</style><path class="amst0" d="M11 16.4L4.3 10H43V8H4.3L11 1.6 9.4 0 0 9l9.4 9"/></symbol><symbol id="anim3__body" viewBox="0 0 248.1 175.3"><style>.anst0{fill:#adb5b6}.anst1{fill:#fff;stroke:#b6bbbc;stroke-width:2;stroke-miterlimit:10}.anst2{fill:#e0e4e4}.anst3{fill:#ebeeee}.anst4{fill:none;stroke:#d6dadb;stroke-width:2;stroke-miterlimit:10}.anst5{fill:#d6dadb}.anst6{fill:#c9cfd0}</style><path class="anst1" d="M1 1h246.1v173.3H1z"/><path class="anst0" d="M10.9 11.5h226v30.2h-226z"/><path class="anst2" d="M10.9 44.8h34.4v22H10.9zm38.1 0h34.4v22H49zm38.1 0h34.4v22H87.1zm38.2 0h34.4v22h-34.4zm38.1 0h34.4v22h-34.4zm38.1 0h35.4v22h-35.4z"/><path class="anst3" d="M10.9 70.2h226v18.4h-226zm0 22h226v18.4h-226zm0 22h226v18.4h-226z"/><path class="anst2" d="M10.9 136.2h226v27.5h-226z"/><path class="anst1" d="M198.8 145.3h26.4v8.3h-26.4z"/><path class="anst4" d="M198.8 22.9h26.4v8.3h-26.4z"/><path class="anst5" d="M92 23.9h66.4v6.3H92z"/><path class="anst6" d="M18.2 53.5H39v4.6H18.2zm37.6 0h20.8v4.6H55.8zm38.6 0h20.8v4.6H94.4zm37.6 0h20.8v4.6H132zm38.6 0h20.8v4.6h-20.8zm38.5 0h20.8v4.6h-20.8z"/><circle class="anst5" cx="36.2" cy="26.6" r="6.8"/></symbol><symbol id="anim3__header" viewBox="0 0 248.1 175.3"><style>.aost0{fill:#f1e679}.aost1{fill:none;stroke:#b6bbbc;stroke-width:2;stroke-miterlimit:10}.aost2{fill:#b6bbbc}</style><path class="aost0" d="M10.9 11.5h226v30.2h-226z"/><path class="aost1" d="M198.8 22.9h26.4v8.3h-26.4z"/><path class="aost2" d="M92 23.9h66.4v6.3H92z"/><circle class="aost2" cx="36.2" cy="26.6" r="6.8"/></symbol><symbol id="anim3__laptop" viewBox="0 0 496.7 261.3"><style>.aqst0{fill:#fff;stroke:#b6bbbc;stroke-width:2;stroke-miterlimit:10}.aqst1{fill:#f1e679}.aqst2{fill:#b6bbbc}.aqst3{fill:#ebeeee}.aqst4{fill:#e0e4e4}.aqst5{fill:#c9cfd0}.aqst6{fill-rule:evenodd;clip-rule:evenodd;fill:none;stroke:#b6bbbc;stroke-width:2;stroke-miterlimit:10}</style><path class="aqst0" d="M421 248.1H76c-7.1 0-13-5.8-13-13V14c0-7.2 5.9-13 13-13h345c7.1 0 13 5.8 13 13v221.1c0 7.1-5.9 13-13 13z"/><path class="aqst1" d="M77.5 16.3h344.2v24H77.5z"/><circle class="aqst2" cx="88.4" cy="29.1" r="6.8"/><circle class="aqst2" cx="246.8" cy="9.6" r="2.6"/><path class="aqst3" d="M77.5 42.8h344.2v129.5H77.5z"/><path class="aqst4" d="M77.5 175.8h85.2v57H77.5z"/><circle class="aqst5" cx="101.4" cy="204.3" r="13"/><path class="aqst0" d="M120.1 193.8h32m-32 7.5h32m-32 7.4h32m-32 7.4h16"/><path class="aqst4" d="M165.7 175.8h83.1v57h-83.1z"/><ellipse class="aqst5" cx="189" cy="204.3" rx="12.7" ry="13"/><path class="aqst0" d="M207.2 193.8h31.3m-31.3 7.5h31.3m-31.3 7.4h31.3m-31.3 7.4h15.7"/><path class="aqst4" d="M252.5 175.8h83.1v57h-83.1z"/><ellipse class="aqst5" cx="275.8" cy="204.3" rx="12.7" ry="13"/><path class="aqst0" d="M294 193.8h31.3m-31.3 7.5h31.3m-31.3 7.4h31.3m-31.3 7.4h15.7"/><path class="aqst4" d="M338.5 175.8h83.1v57h-83.1z"/><ellipse class="aqst5" cx="361.9" cy="204.3" rx="12.7" ry="13"/><path class="aqst0" d="M383.3 193.8h32m-32 7.5h32m-32 7.4h32m-32 7.4h16"/><path class="aqst5" d="M208.7 80.3H287v8.3h-78.3zM196.3 94h103.1v8.3H196.3zm12.4 13.7H287v8.3h-78.3z"/><path class="aqst0" d="M217.2 130.5h26.4v8.3h-26.4zm34 0h26.4v8.3h-26.4z"/><path class="aqst5" d="M195.8 25.1h20.8v6.6h-20.8zm26.8 0h20.8v6.6h-20.8zm26.6 0H270v6.6h-20.8zm26.8 0h20.8v6.6H276z"/><path class="aqst6" d="M92.2 108.2l-4.3-4.4 4.3-4.4m313 8.8l4.4-4.4-4.4-4.4"/><path class="aqst2" d="M400.7 22.3h13.5v13.5h-13.5z"/><path class="aqst0" d="M1 248.1h494.7v6.3H1z"/><path class="aqst0" d="M495.7 254.2c0 6.1-58.3 6.1-61.7 6.1H63c-3.4 0-62 0-62-6.1m290-6.1c0 3.4-2.8 6.1-6.1 6.1h-73.1c-3.4 0-6.1-2.8-6.1-6.1"/></symbol><symbol id="anim3__mask" viewBox="0 0 496.7 261.3"><style>.arst0{fill:#6f7575;opacity:.3;}</style><path class="arst0" d="M77.5 42.8h344.2v129.5H77.5z"/><path class="arst0" d="M77.5 175.8h85.2v57H77.5z"/><path class="arst0" d="M165.7 175.8h83.1v57h-83.1z"/><path class="arst0" d="M252.5 175.8h83.1v57h-83.1z"/><path class="arst0" d="M338.5 175.8h83.1v57h-83.1z"/></symbol><symbol id="anim4__arrow" viewBox="0 0 43 18"><style>.asst0{fill-rule:evenodd;clip-rule:evenodd;fill:#b6bbbc}</style><path class="asst0" d="M11 16.4L4.3 10H43V8H4.3L11 1.6 9.4 0 0 9l9.4 9"/></symbol><symbol id="anim4__cog" viewBox="0 0 78 78"><style>.atst0{fill:none;stroke:#b6bbbc;stroke-width:2;stroke-miterlimit:10}.st0,.st1{fill-rule:evenodd;clip-rule:evenodd}.atst1{fill:#ebeeee}.atst2{fill:#adb5b6}</style><path class="atst0" d="M39 1c21 0 38 17 38 38S60 77 39 77 1 60 1 39 18 1 39 1z"/><path class="atst1" d="M39 8.7c16.7 0 30.3 13.6 30.3 30.3 0 16.7-13.6 30.3-30.3 30.3C22.3 69.3 8.7 55.7 8.7 39 8.7 22.3 22.3 8.7 39 8.7z"/><path class="atst2" d="M52.5 40.7v-3.4l-3.6-.6c-.3-1.1-.7-2.1-1.3-3l2.1-3-2.4-2.4-3 2.1c-.9-.6-1.9-1-3-1.3l-.6-3.6h-3.4l-.6 3.6c-1.1.3-2.1.7-3 1.3l-3-2.1-2.4 2.4 2.1 3c-.6.9-1 2-1.3 3l-3.6.6v3.4l3.6.6c.3 1.1.7 2.1 1.3 3l-2.1 3 2.4 2.4 3-2.2c.9.6 1.9 1 3 1.3l.6 3.6h3.4l.6-3.6c1.1-.3 2.1-.7 3-1.3l3 2.2 2.4-2.4-2.1-3c.6-.9 1-2 1.3-3l3.6-.6zm-12 5.6a7.4 7.4 0 0 1-8.7-8.7c.6-2.9 2.9-5.3 5.8-5.8 5.2-1 9.7 3.5 8.7 8.7-.5 2.9-2.9 5.2-5.8 5.8z"/></symbol><symbol id="anim4__data" viewBox="0 0 78 78"><style>.aust0{fill-rule:evenodd;clip-rule:evenodd;fill:none;stroke:#b6bbbc;stroke-width:2;stroke-miterlimit:10}.aust1{fill:#ebeeee}.st1,.st2{fill-rule:evenodd;clip-rule:evenodd}.aust2{fill:#adb5b6}</style><path class="aust0" d="M39 1c21 0 38 17 38 38S60 77 39 77 1 60 1 39 18 1 39 1z"/><path class="aust1" d="M39 8.7c16.7 0 30.3 13.6 30.3 30.3 0 16.7-13.6 30.3-30.3 30.3C22.3 69.3 8.7 55.7 8.7 39 8.7 22.3 22.3 8.7 39 8.7z"/><path class="aust2" d="M28 48h2.8v-4.5H28V48zm6.4 0h2.8v-9h-2.8v9zm6.4 0h2.8V34.5h-2.8V48zm6.5-18v18H50V30h-2.7z"/></symbol><symbol id="anim4__mail" viewBox="0 0 78 78"><style>.avst0{fill:none;stroke:#b6bbbc;stroke-width:2;stroke-miterlimit:10}.st0,.st1{fill-rule:evenodd;clip-rule:evenodd}.avst1{fill:#ebeeee}.avst2{fill:#adb5b6}</style><path class="avst0" d="M39 1c21 0 38 17 38 38S60 77 39 77 1 60 1 39 18 1 39 1z"/><path class="avst1" d="M39 8.7c16.7 0 30.3 13.6 30.3 30.3 0 16.7-13.6 30.3-30.3 30.3C22.3 69.3 8.7 55.7 8.7 39 8.7 22.3 22.3 8.7 39 8.7z"/><path class="avst2" d="M50.5 27.6h-23c-2 0-3.7 1.6-3.7 3.5v15.7c0 2 1.7 3.5 3.7 3.5h23c2 0 3.7-1.6 3.7-3.5V31.1c0-1.9-1.7-3.5-3.7-3.5zm1 20.5h-25c-.3 0-.6-.2-.6-.4V31.9l11.3 9.5c.2.2.5.3.8.3h2c.3 0 .6-.1.8-.3l11.3-9.5v15.8c0 .2-.3.4-.6.4zM39 39.6l-11.5-9.7h22.9L39 39.6z"/></symbol><symbol id="anim4__ship" viewBox="0 0 78 78"><style>.awst0{fill:none;stroke:#b6bbbc;stroke-width:2;stroke-miterlimit:10}.st0,.st1{fill-rule:evenodd;clip-rule:evenodd}.awst1{fill:#ebeeee}.awst2{fill:#adb5b6}</style><path class="awst0" d="M39 1c21 0 38 17 38 38S60 77 39 77 1 60 1 39 18 1 39 1z"/><path class="awst1" d="M39 8.7c16.7 0 30.3 13.6 30.3 30.3 0 16.7-13.6 30.3-30.3 30.3C22.3 69.3 8.7 55.7 8.7 39 8.7 22.3 22.3 8.7 39 8.7z"/><path class="awst2" d="M48.7 35.1c-.2-.3-.5-.5-.8-.5h-1c-.6 0-1 .5-1 1v4.6c0 .6.5 1 1 1H51c.6 0 1-.5 1-1v-1.5c0-.2-.1-.4-.2-.6l-3.1-3zm6.8 2.5l-4.1-6.1c-.6-.9-1.5-1.4-2.5-1.4h-5.5v-2c0-1.7-1.4-3.1-3-3.1H25c-1.7 0-3 1.4-3 3.1v11.2c0 1.7 1.4 3.1 3 3.1v4.5c0 1.7 1.4 3.1 3 3.1h1.2c.5 1.8 2 3.1 3.9 3.1s3.5-1.3 3.9-3.1h6.8c.5 1.8 2 3.1 3.9 3.1s3.5-1.3 3.9-3.1H53c1.7 0 3-1.4 3-3.1v-7.6c0-.6-.2-1.2-.5-1.7zM25 40.3c-.6 0-1-.5-1-1V28.1c0-.6.5-1 1-1h15.2c.6 0 1 .5 1 1v11.2c0 .6-.5 1-1 1H25zM33.2 51c-1.1 0-2-.9-2-2s.9-2 2-2 2 .9 2 2c0 1-.9 2-2 2zm14.7 0c-1.1 0-2-.9-2-2s.9-2 2-2 2 .9 2 2c0 1-.9 2-2 2zm6.1-4.1c0 .6-.5 1-1 1h-1.2c-.5-1.8-2-3.1-3.9-3.1s-3.5 1.3-3.9 3.1h-6.8c-.5-1.8-2-3.1-3.9-3.1s-3.5 1.3-3.9 3.1h-1.2c-.6 0-1-.5-1-1v-4.5h13.2c1.7 0 3-1.4 3-3.1v-7.1h5.5c.3 0 .7.2.8.5l4.1 6.1c.1.2.2.4.2.6v7.5z"/></symbol><symbol id="anim4__snipcart" viewBox="0 0 105 118"><style>.axst0{fill:#FFF;stroke:#b6bbbc;stroke-width:2;stroke-miterlimit:10}.axst1{fill:#f1e679}</style><path class="axst0" d="M97.8 25.3L58.7 2.5c-3.4-2-9-2-12.4 0L7.2 25.3C3.8 27.3 1 32.2 1 36.2v45.6c0 4 2.8 8.9 6.2 10.9l39.1 22.8c3.4 2 9 2 12.4 0l39.1-22.8c3.4-2 6.2-6.9 6.2-10.9V36.2c0-4-2.8-8.9-6.2-10.9z"/><path class="axst1" d="M91.6 29.2L57.4 9.3c-3-1.7-7.9-1.7-10.8 0L12.4 29.2c-3 1.7-5.4 6-5.4 9.5v39.7c0 3.5 2.4 7.7 5.4 9.5l34.2 19.9c3 1.7 7.9 1.7 10.8 0l34.2-19.9c3-1.7 5.4-6 5.4-9.5V38.6c0-3.4-2.4-7.7-5.4-9.4zm-9.2 21.4h-3.5v-6.1c0-4.6-3.5-6.1-10.4-6.1h-.3c-16.4 0-14.9-6.2-15.4-8.4h-.2c-.5 2.3 1.1 8.4-15.3 8.4h-.4c-6.8 0-10.4 1.4-10.4 6.1v4.7l56 16.3v6.7c0 6.7-3.2 10.3-13.9 10.3H68c-8.4 0-13.5 1.8-13.5 8.4H51c0-6.7-5.1-8.4-13.5-8.4H37c-10.7 0-13.9-3.7-13.9-10.3v-5.8h3.5v6.1c0 4.6 3.5 6.1 10.4 6.1h.3c16.4 0 14.9 6.2 15.4 8.4h.2c.5-2.3-1.1-8.4 15.3-8.4h.4c6.8 0 10.4-1.4 10.4-6.1V69L23 52.7v-7.9c0-6.7 3.2-10.3 13.9-10.3h.5c8.4 0 13.5-1.8 13.5-8.4h3.5c0 6.7 5.2 8.4 13.5 8.4h.5c10.7 0 13.9 3.7 13.9 10.3l.1 5.8z"/></symbol><symbol id="anim4__store" viewBox="0 0 78 78"><style>.ayst0{fill:none;stroke:#b6bbbc;stroke-width:2;stroke-miterlimit:10}.st0,.st1{fill-rule:evenodd;clip-rule:evenodd}.ayst1{fill:#ebeeee}.ayst2{fill:#adb5b6}</style><path class="ayst0" d="M39 1c21 0 38 17 38 38S60 77 39 77 1 60 1 39 18 1 39 1z"/><path class="ayst1" d="M39 8.7c16.7 0 30.3 13.6 30.3 30.3 0 16.7-13.6 30.3-30.3 30.3C22.3 69.3 8.7 55.7 8.7 39 8.7 22.3 22.3 8.7 39 8.7z"/><path class="ayst2" d="M44.6 44.3c.5 0 .9-.4.9-.9s-.4-.9-.9-.9-.9.4-.9.9.4.9.9.9zm9.4-8.5V31l-3.8-3.3V24H27.8v3.8L24 31v4.7c0 2.1 1.7 3.8 3.8 3.8V49c-2.1 0-3.8 1.7-3.8 5h30c0-3.3-1.7-5-3.8-5v-9.5c2.1.1 3.8-1.6 3.8-3.7zM29.4 25.5h19.3v1.8H29.4v-1.8zm-.3 3.6h20l1.7 1.3-23.5.1 1.8-1.4zm15.5 10.5c1.1 0 2.1-.5 2.8-1.3.3.3.6.6.9.8v10h-5.6V39c.6.4 1.2.6 1.9.6zm-1.8-3.8V32h3.8v3.8c0 1-.8 1.9-1.9 1.9s-1.9-.9-1.9-1.9zm-9.4 3.8c1.1 0 2.1-.5 2.8-1.3.7.8 1.7 1.3 2.8 1.3.7 0 1.3-.2 1.9-.5v10H29.6V39c.4-.2.7-.5.9-.8.8.8 1.8 1.4 2.9 1.4zm-1.9-3.8V32h3.8v3.8c0 1-.8 1.9-1.9 1.9-1.1 0-1.9-.9-1.9-1.9zm7.5 1.9c-1 0-1.9-.8-1.9-1.9V32h3.8v3.8c0 1-.9 1.9-1.9 1.9zm-13.1-1.9V32h3.8v3.8c0 1-.8 1.9-1.9 1.9-1.1 0-1.9-.9-1.9-1.9zm24.4 14.9c.5 0 1.5.4 1.5 1.4H26.3c0-1.1 1-1.4 1.4-1.4h22.6zm-1.9-14.9V32h3.8v3.8c0 1-.8 1.9-1.9 1.9s-1.9-.9-1.9-1.9z"/></symbol><symbol id="anim4__users" viewBox="0 0 78 78"><style>.azst0{fill:none;stroke:#b6bbbc;stroke-width:2;stroke-miterlimit:10}.st0,.st1{fill-rule:evenodd;clip-rule:evenodd}.azst1{fill:#ebeeee}.azst2{fill:#adb5b6}</style><path class="azst0" d="M39 1c21 0 38 17 38 38S60 77 39 77 1 60 1 39 18 1 39 1z"/><path class="azst1" d="M39 8.7c16.7 0 30.3 13.6 30.3 30.3 0 16.7-13.6 30.3-30.3 30.3C22.3 69.3 8.7 55.7 8.7 39 8.7 22.3 22.3 8.7 39 8.7z"/><path class="azst2" d="M56.2 42.7c-.6-.7-1.5-1.5-2.5-2.1-.9-.6-2-1.2-3-1.6.3-.5.6-1.1.8-1.7.4-.4.7-.9.9-1.4.2-.6.3-1.3.2-2 0-.4-.2-.8-.3-1.2 0-.5.1-1.2 0-1.9-.1-1.4-.6-2.6-1.4-3.6-.5-.6-1.2-1.1-2-1.4-.8-.3-1.7-.5-2.7-.5-1 0-1.9.2-2.7.5-.8.3-1.5.8-2 1.4-.6.7-1.1 1.6-1.3 2.7-.4-.1-.8-.1-1.2-.1-.3 0-.7 0-1 .1-.2-1-.7-1.9-1.3-2.7-.5-.6-1.2-1.1-2-1.4-.8-.3-1.7-.5-2.7-.5-1 0-1.9.2-2.7.5-.8.3-1.5.8-2 1.4-.8.9-1.3 2.1-1.4 3.6-.1.7 0 1.4 0 1.9-.2.4-.3.8-.3 1.2-.1.7 0 1.4.2 2 .2.6.5 1.1.9 1.4.2.7.5 1.3.8 1.7-1 .4-2.1 1-3 1.6-1.1.7-1.9 1.4-2.5 2.1-.9 1.1-1.4 2.2-1.4 3.4v2.1h7.7c-.4.8-.7 1.6-.7 2.4v2.1h23v-2.1c0-.8-.2-1.6-.7-2.4h7.9v-2.1c-.2-1.2-.7-2.3-1.6-3.4zm-33.7 3.4c0-2.8 5.6-5.3 7.1-5.6.5-.1.5-1.4.5-1.4s-1.4-1.4-1.7-3.3c-.8 0-1.3-2-.5-2.7 0-.7-1-5.8 4-5.8 2.8 0 3.7 1.5 4 3-.7.3-1.2.7-1.7 1.3-.8.9-1.3 2.1-1.4 3.6-.1.7 0 1.4 0 1.9-.2.4-.3.8-.3 1.2-.1.7 0 1.4.2 2 .2.6.5 1.1.9 1.4.2.7.5 1.3.8 1.7-1 .4-2.1 1-3 1.6-.5.3-1 .7-1.4 1.1h-7.5zm25.9 4.5H29.6c0-.8.5-1.6 1.2-2.4.8-.8 2-1.6 3.1-2.1h.8v-.4c.8-.4 1.6-.6 2-.7.5-.1.5-1.4.5-1.4s-.4-.4-.9-1.2c-.3-.4-.5-1-.7-1.6-.1-.2-.1-.4-.1-.6-.8 0-1.3-2-.5-2.7v-.1c-.1-.8-.4-3.3 1.1-4.7.5-.5 1.2-.8 2.1-.9.3 0 .5-.1.8-.1.4 0 .7 0 1 .1 1 .2 1.7.6 2.1 1.1 1.2 1.3 1 3.3.9 4.2v.4c.8.7.3 2.7-.5 2.7 0 .2-.1.4-.1.6-.2.5-.4 1-.6 1.4-.5.8-.9 1.3-.9 1.3s0 1.3.5 1.4c.4.1 1.2.3 2.1.8v.3h.6c1.1.6 2.2 1.3 3.1 2.1.7.9 1.2 1.7 1.2 2.5zm-.5-4.5c-.4-.4-.9-.7-1.4-1.1-.9-.6-2-1.2-3-1.6.3-.5.6-1.1.8-1.7.4-.4.7-.9.9-1.4.2-.6.3-1.3.2-2 0-.4-.2-.8-.3-1.2 0-.5.1-1.2 0-1.9-.1-1.4-.6-2.6-1.4-3.6-.4-.5-1-.9-1.6-1.2.3-1.5 1.2-3.1 4-3.1 5.1 0 4.1 5.1 4 5.8.8.7.3 2.7-.5 2.7-.3 1.9-1.7 3.3-1.7 3.3s0 1.3.5 1.4c1.5.2 7.1 2.8 7.1 5.6h-7.6z"/></symbol><symbol id="anim5__bar" viewBox="0 0 260.4 14.5"><style>.bast0{fill:#e0e4e4}</style><path class="bast0" d="M0 0h260.4v14.5H0z"/></symbol><symbol id="anim5__body" viewBox="0 0 525.6 199"><style>.bdst0{fill:#FFF}.bdst1{fill:#e0e4e4}.bdst2{fill:#b6bbbc}.bdst3{fill:#f1e679}.bdst4{stroke:#e0e4e4}.bdst4,.bdst5{fill:none;stroke-width:2;stroke-miterlimit:10}.bdst5{stroke:#adb5b6}.bdst6{fill:#adb5b6}.bdst7{stroke:#adb5b6;stroke-width:7}.bdst7,.bdst8{fill:none;stroke-miterlimit:10}.bdst8{stroke:#f1e679;stroke-width:2}.bdst9{fill-rule:evenodd;clip-rule:evenodd;fill:#b6bbbc}.bdst10{fill:none;stroke:#b6bbbc;stroke-width:2;stroke-miterlimit:10}</style><path class="bdst0" d="M265.2 31.5h260.4V199H265.2z"/><path class="bdst1" d="M265.2 0h260.4v25.5H265.2z"/><path class="bdst2" d="M291 9.6h56.7V16H291z"/><path class="bdst3" d="M290.2 61.8h211.9v19.6H290.2z"/><path class="bdst2" d="M298 69.7h43.9v3.4H298zm61.2 0h23.9v3.4h-23.9zm42.2 0h23.9v3.4h-23.9zm42.2 0h23.9v3.4h-23.9z"/><path class="bdst4" d="M290.2 61.8h211.9"/><path class="bdst0" d="M0 106.5h260.4V199H0z"/><path class="bdst1" d="M0 0h260.4v100.5H0z"/><path class="bdst2" d="M25.9 9.6h56.7V16H25.9zm2 111.2h43.9v3.4H27.9zm104.9 0h33.9v3.4h-33.9zm59 0h26.9v3.4h-26.9z"/><path class="bdst5" d="M26 28.5v43.3"/><path class="bdst3" d="M103.1 85.9h-16c-1.1 0-2-.9-2-2V31.2c0-1.1.9-2 2-2h16c1.1 0 2 .9 2 2v52.7c0 1.1-.9 2-2 2z"/><path class="bdst5" d="M26 71.8h217.9M25.5 60.7s40.6-1.8 63.6-7c40.1-8.9 84.2-23.4 154.8-23"/><path class="bdst6" d="M27 160.7h5.3v21H27zm11-6.7h5.3v27.7H38z"/><path class="bdst3" d="M49 148.6h5.3v33.1H49z"/><path class="bdst6" d="M60 147.2h5.3v34.5H60zm11.1-6.7h5.3v41.2h-5.3zm11.1 6.7h5.3v34.5h-5.3zm11-6.7h5.3v41.2h-5.3z"/><circle class="bdst7" cx="154.7" cy="160.3" r="20.2"/><path class="bdst8" d="M154.7 140.1c11.2 0 20.2 9.1 20.2 20.2s-9.1 20.2-20.2 20.2-20.2-9.1-20.2-20.2"/><circle class="bdst7" cx="213.8" cy="160.3" r="20.2"/><path class="bdst8" d="M213.8 140.1c11.2 0 20.2 9.1 20.2 20.2s-9.1 20.2-20.2 20.2"/><path class="bdst2" d="M89.7 33.5h11.7v2.4H89.7zM27.9 79h11.4v2.4H27.9zm20.5 0h11.4v2.4H48.4zm20.4 0h11.4v2.4H68.8zm20.5 0h11.4v2.4H89.3zm20.4 0h11.4v2.4h-11.4zm20.5 0h11.4v2.4h-11.4zm20.4 0H162v2.4h-11.4zm20.4 0h11.4v2.4H171zm20.5 0h11.4v2.4h-11.4zm20.4 0h11.4v2.4h-11.4zm20.5 0h11.4v2.4h-11.4zM45.8 188.6h11.7v2.4H45.8z"/><circle class="bdst9" cx="33.6" cy="60.7" r="2.3"/><circle class="bdst9" cx="54.1" cy="58.9" r="2.3"/><circle class="bdst9" cx="74.5" cy="56.6" r="2.3"/><circle class="bdst9" cx="95.1" cy="52.5" r="2.3"/><circle class="bdst9" cx="115.4" cy="48" r="2.3"/><circle class="bdst9" cx="135.9" cy="42.5" r="2.3"/><circle class="bdst9" cx="156.3" cy="38.8" r="2.3"/><circle class="bdst9" cx="176.7" cy="35.7" r="2.3"/><circle class="bdst9" cx="197.2" cy="33" r="2.3"/><circle class="bdst9" cx="217.6" cy="31.5" r="2.3"/><circle class="bdst9" cx="238.1" cy="30.8" r="2.3"/><circle class="bdst9" cx="492.7" cy="71.2" r="2.3"/><circle class="bdst9" cx="484.5" cy="71.2" r="2.3"/><path class="bdst2" d="M298 89.5h43.9v3.4H298zm61.2 0h23.9v3.4h-23.9zm42.2 0h23.9v3.4h-23.9zm42.2 0h23.9v3.4h-23.9z"/><path class="bdst4" d="M290.2 81.6h211.9"/><circle class="bdst9" cx="492.7" cy="91" r="2.3"/><circle class="bdst9" cx="484.5" cy="91" r="2.3"/><path class="bdst2" d="M298 109.3h43.9v3.4H298zm61.2 0h23.9v3.4h-23.9zm42.2 0h23.9v3.4h-23.9zm42.2 0h23.9v3.4h-23.9z"/><path class="bdst4" d="M290.2 101.5h211.9"/><circle class="bdst9" cx="492.7" cy="110.8" r="2.3"/><circle class="bdst9" cx="484.5" cy="110.8" r="2.3"/><path class="bdst2" d="M298 129.2h43.9v3.4H298zm61.2 0h23.9v3.4h-23.9zm42.2 0h23.9v3.4h-23.9zm42.2 0h23.9v3.4h-23.9z"/><path class="bdst4" d="M290.2 121.3h211.9"/><circle class="bdst9" cx="492.7" cy="130.6" r="2.3"/><circle class="bdst9" cx="484.5" cy="130.6" r="2.3"/><path class="bdst2" d="M298 149h43.9v3.4H298zm61.2 0h23.9v3.4h-23.9zm42.2 0h23.9v3.4h-23.9zm42.2 0h23.9v3.4h-23.9z"/><path class="bdst4" d="M290.2 141.1h211.9"/><circle class="bdst9" cx="492.7" cy="150.4" r="2.3"/><circle class="bdst9" cx="484.5" cy="150.4" r="2.3"/><path class="bdst2" d="M298 168.8h43.9v3.4H298zm61.2 0h23.9v3.4h-23.9zm42.2 0h23.9v3.4h-23.9zm42.2 0h23.9v3.4h-23.9z"/><path class="bdst4" d="M290.2 160.9h211.9"/><circle class="bdst9" cx="492.7" cy="170.2" r="2.3"/><circle class="bdst9" cx="484.5" cy="170.2" r="2.3"/><path class="bdst4" d="M290.2 179.8h211.9"/><path class="bdst10" d="M357.3 10.6h26.4v5.3h-26.4zm35.8 0h26.4v5.3h-26.4z"/></symbol><symbol id="anim5__logo" viewBox="0 0 44.5 11.5"><style>.bgst0{fill:none;stroke:#ebeeee;stroke-width:2;stroke-miterlimit:10}.bgst1{fill:#f1e679}</style><path class="bgst0" d="M18 6.8h26.5"/><circle class="bgst1" cx="5.8" cy="5.8" r="5.8"/></symbol><symbol id="anim5__menu" viewBox="0 0 43.6 50.5"><style>.bhst0{fill:none;stroke:#ebeeee;stroke-width:2;stroke-miterlimit:10}.bhst1{fill-rule:evenodd;clip-rule:evenodd;fill:#ebeeee}</style><path class="bhst0" d="M9 2.3h34.6"/><circle class="bhst1" cx="2.3" cy="2.3" r="2.3"/><path class="bhst0" d="M9 13.8h34.6"/><circle class="bhst1" cx="2.3" cy="13.8" r="2.3"/><path class="bhst0" d="M9 25.3h34.6"/><circle class="bhst1" cx="2.3" cy="25.3" r="2.3"/><path class="bhst0" d="M9 36.8h34.6"/><circle class="bhst1" cx="2.3" cy="36.8" r="2.3"/><path class="bhst0" d="M9 48.3h34.6"/><circle class="bhst1" cx="2.3" cy="48.3" r="2.3"/></symbol><symbol id="anim5__window" viewBox="0 0 361.1 283.3"><style>.bist0,.bist1{fill:none;stroke:#b6bbbc;stroke-width:2;stroke-miterlimit:10}.bist1{fill-rule:evenodd;clip-rule:evenodd}.bist2,.bist3{fill:#b6bbbc}.bist3{fill-rule:evenodd;clip-rule:evenodd}</style><path class="bist0" d="M1 36h359.1v246.3H1z"/><path class="bist1" d="M20.6 28l3.4-3.4-3.4-3.3M13.8 28l-3.4-3.4 3.4-3.3"/><path class="bist0" d="M1 36V6c0-2.8 2.2-5 5-5h349.1c2.8 0 5 2.2 5 5v30H1z"/><path class="bist0" d="M38.3 16v-5c0-2.8 2.2-5 5-5h26.1c2.8 0 5 2.2 5 5v5"/><path class="bist2" d="M326.2 28.3h-291c-1.1 0-2-.9-2-2V23c0-1.1.9-2 2-2h291c1.1 0 2 .9 2 2v3.3c0 1.1-.9 2-2 2z"/><circle class="bist3" cx="25.5" cy="7.9" r="2.3"/><circle class="bist3" cx="17.3" cy="7.9" r="2.3"/><circle class="bist3" cx="9.1" cy="7.9" r="2.3"/><circle class="bist3" cx="351.2" cy="24.7" r="2.3"/><circle class="bist3" cx="343" cy="24.7" r="2.3"/><circle class="bist3" cx="334.8" cy="24.7" r="2.3"/><path class="bist0" d="M73.3 15h286.8M1 15h38.2"/></symbol></svg>
